Wonders of the solar system 1/5 Empire of the sun

brought to you by the Pro Torrent team   http://www.protorrent.co.uk

Professor Brian Cox describes how the laws of nature have carved natural wonders across the solar system. He explores the powerhouse of the all, the sun.

Format                           : AVI
Format/Info                      : Audio Video Interleave
Format profile                   : OpenDML
Format settings                  : rec
File size                        : 755 MiB
Duration                         : 58mn 22s
Overall bit rate                 : 1 807 Kbps
Writing application              : AVI-Mux GUI 1.17.8.3, Feb 16 201019:42:50

Video
ID                               : 0
Format                           : MPEG-4 Visual
Format profile                   : Advanced Simple@L5
Format settings, BVOP            : 1
Format settings, QPel            : No
Format settings, GMC             : No warppoints
Format settings, Matrix          : Default (H.263)
Muxing mode                      : Packed bitstream
Codec ID                         : XVID
Codec ID/Hint                    : XviD
Duration                         : 58mn 22s
Bit rate                         : 1 610 Kbps
Width                            : 704 pixels
Height                           : 400 pixels
Display aspect ratio             : 16:9
Frame rate                       : 25.000 fps
Color space                      : YUV
Chroma subsampling               : 4:2:0
Bit depth                        : 8 bits
Scan type                        : Progressive
Compression mode                 : Lossy
Bits/(Pixel*Frame)               : 0.229
Stream size                      : 672 MiB (89%)
Writing library                  : XviD 1.2.1 (UTC 2008-12-04)

Audio
ID                               : 1
Format                           : AC-3
Format/Info                      : Audio Coding 3
Mode extension                   : CM (complete main)
Codec ID                         : 2000
Duration                         : 58mn 21s
Bit rate mode                    : Constant
Bit rate                         : 192 Kbps
Channel(s)                       : 2 channels
Channel positions                : Front: L R
Sampling rate                    : 44.1 KHz
Bit depth                        : 16 bits
Compression mode                 : Lossy
Delay relative to video          : 34ms
Stream size                      : 80.1 MiB (11%)
Alignment                        : Aligned on interleaves
Interleave, duration             : 70 ms (1.74 video frames)
Interleave, preload duration     : 208 ms
Title                            : Wonders of the Solar System E01 NO 157d 